<?xml version="1.0" encoding="UTF-8"?>
<svg width="53px" height="17px" viewBox="0 0 53 17" version="1.1" xmlns="http://www.w3.org/2000/svg" xmlns:xlink="http://www.w3.org/1999/xlink">
    <!-- Generator: Sketch 46.1 (44463) - http://www.bohemiancoding.com/sketch -->
    <title>corti_logo</title>
    <desc>Created with Sketch.</desc>
    <defs></defs>
    <g id="Page-1" stroke="none" stroke-width="1" fill="none" fill-rule="evenodd">
        <g id="Desktop-HD" transform="translate(-878.000000, -740.000000)" fill="#000000">
            <g id="corti_logo" transform="translate(878.000000, 740.000000)">
                <path d="M8.4698,3.8426 C10.1768,3.8426 11.5368,4.6266 12.4058,5.9416 L15.0168,4.3436 C13.7668,2.2226 11.3078,0.9286 8.4908,0.9286 C3.7928,0.9286 0.4978,4.2456 0.4978,8.8246 C0.4978,13.4026 3.7928,16.7196 8.4908,16.7196 C11.2858,16.7196 13.5478,15.4796 14.9178,13.5006 L12.4388,11.7166 C11.5258,13.0546 10.1658,13.8046 8.4698,13.8046 C5.7838,13.8046 3.6628,11.8806 3.6628,8.8246 C3.6628,5.8656 5.7178,3.8426 8.4698,3.8426" id="Fill-29443"></path>
                <path d="M21.9535,5.6159 C18.6805,5.6159 16.2655,7.9869 16.2655,11.1629 C16.2655,14.3379 18.6805,16.7089 21.9535,16.7089 C25.2375,16.7089 27.6625,14.3379 27.6625,11.1629 C27.6625,7.9869 25.2375,5.6159 21.9535,5.6159 M21.9535,14.0659 C20.3555,14.0659 19.1585,12.8699 19.1585,11.1629 C19.1585,9.4549 20.3555,8.2589 21.9535,8.2589 C23.5625,8.2589 24.7595,9.4549 24.7595,11.1629 C24.7595,12.8699 23.5625,14.0659 21.9535,14.0659" id="Fill-29445"></path>
                <path d="M50.2251,4.2567 C51.2361,4.2567 52.0411,3.4737 52.0411,2.4507 C52.0411,1.4287 51.2361,0.6247 50.2251,0.6247 C49.2031,0.6247 48.4191,1.4287 48.4191,2.4507 C48.4191,3.4737 49.2031,4.2567 50.2251,4.2567" id="Fill-29447"></path>
                <polygon id="Fill-29450" points="47.0469 5.899 47.0469 8.422 48.8219 8.422 48.8219 16.437 51.6609 16.437 51.6609 5.899 48.8219 5.899"></polygon>
                <polygon id="Fill-29451" points="36.5342 5.899 32.2672 5.899 31.6702 5.899 29.4282 5.899 29.4282 16.437 32.2672 16.437 32.2672 8.422 36.5342 8.422"></polygon>
                <polygon id="Fill-29452" points="41.4799 12.2716 41.4799 8.4216 44.6749 8.4216 44.6749 5.8986 41.4799 5.8986 41.4799 2.7666 38.6409 2.7666 38.6409 5.8986 38.6409 8.4216 38.6409 12.4996 38.6409 16.4366 41.4799 16.4366 41.4799 16.4376 45.2969 16.4376 45.2969 13.9146 41.4799 13.9146"></polygon>
            </g>
        </g>
    </g>
</svg>